<?xml version="1.0" encoding="utf-8"?>
<!-- Generator: Adobe Illustrator 21.0.2, SVG Export Plug-In . SVG Version: 6.00 Build 0)  -->
<svg version="1.1" id="synthesizer" xmlns="http://www.w3.org/2000/svg" xmlns:xlink="http://www.w3.org/1999/xlink" x="0px"
	 y="0px" viewBox="0 0 128 128" style="enable-background:new 0 0 128 128;" xml:space="preserve">
<style type="text/css">
	.st0{fill:#FC8BA4;}
	.st1{fill:#FFFFFF;}
	.st2{fill:#233E49;}
	.st3{fill:#415E6D;}
	.st4{fill:#324D5B;}
	.st5{fill:#EAEAEA;}
	.st6{fill:#D4D6D6;}
	.st7{fill:#22B573;}
	.st8{fill:#C1272D;}
	.st9{fill:#C5ECFF;}
	.st10{opacity:0.5;fill:#FFFFFF;}
	.st11{fill:#707D8E;}
</style>
<g>
	<circle class="st0" cx="64" cy="64" r="64"/>
	<path class="st1" d="M78,115c-2.2,0-4-1.8-4-4c0-2.2,1.8-4,4-4c2.2,0,4,1.8,4,4C82,113.2,80.2,115,78,115z M78,108.9
		c-1.2,0-2.1,1-2.1,2.1c0,1.2,1,2.1,2.1,2.1c1.2,0,2.1-1,2.1-2.1C80.1,109.8,79.2,108.9,78,108.9z"/>
	<path class="st1" d="M56.2,113.1c0-0.4-0.4-0.8-1-0.9l-1.9-0.3c-0.5-0.1-1.1-0.6-1.1-1.1l-0.3-1.9c-0.1-0.5-0.5-1-0.9-1
		c-0.4,0-0.8,0.4-0.9,1l-0.3,1.9c-0.1,0.5-0.6,1.1-1.1,1.1l-1.9,0.3c-0.5,0.1-1,0.5-1,0.9c0,0.4,0.4,0.8,1,0.9l1.9,0.3
		c0.5,0.1,1.1,0.6,1.1,1.1l0.3,1.9c0.1,0.5,0.5,1,0.9,1c0.4,0,0.8-0.4,0.9-1l0.3-2.1c0.1-0.5,0.6-1,1.1-1.1l1.8-0.1
		C55.8,113.8,56.2,113.5,56.2,113.1z"/>
	<path class="st1" d="M60.4,17.1c0-0.4-0.4-0.8-1-0.9L57.6,16c-0.5-0.1-1.1-0.6-1.1-1.1L56.1,13c-0.1-0.5-0.5-1-0.9-1
		c-0.4,0-0.8,0.4-0.9,1l-0.3,1.9c-0.1,0.5-0.6,1.1-1.1,1.1l-1.9,0.3c-0.5,0.1-1,0.5-1,0.9c0,0.4,0.4,0.8,1,0.9l1.9,0.3
		c0.5,0.1,1.1,0.6,1.1,1.1l0.3,1.9c0.1,0.5,0.5,1,0.9,1c0.4,0,0.8-0.4,0.9-1l0.3-2.1c0.1-0.5,0.6-1,1.1-1.1l1.8-0.1
		C60,17.9,60.4,17.5,60.4,17.1z"/>
	<path class="st1" d="M32,32c-2.2,0-4-1.8-4-4c0-2.2,1.8-4,4-4c2.2,0,4,1.8,4,4C36,30.2,34.2,32,32,32z M32,25.9
		c-1.2,0-2.1,1-2.1,2.1c0,1.2,1,2.1,2.1,2.1c1.2,0,2.1-1,2.1-2.1C34.1,26.8,33.2,25.9,32,25.9z"/>
	<path class="st1" d="M92,29c-2.2,0-4-1.8-4-4c0-2.2,1.8-4,4-4c2.2,0,4,1.8,4,4C95.9,27.2,94.2,29,92,29z M92,22.9
		c-1.2,0-2.1,1-2.1,2.1c0,1.2,0.9,2.1,2.1,2.1c1.2,0,2.1-1,2.1-2.1C94.1,23.8,93.1,22.9,92,22.9z"/>
	<path class="st2" d="M113.7,16.7c0.3,2.1,0,4-0.8,5.6c0.5,0.6,0.9,1.1,1.4,1.7c1.2-2.1,1.8-4.8,1.4-7.6C114,5.2,99.8,4.1,95.4,4
		c-9.8-0.2-17.7,2.5-23.4,8.1c-7.1,7-8.7,16.6-8.7,19.7c0,0.6,0.4,1,1,1c0.6,0,1-0.4,1-1c0-2.9,1.4-11.8,8.1-18.2
		C78.7,8.3,86.1,5.8,95.4,6C110.5,6.3,113.3,13.6,113.7,16.7z"/>
	<ellipse class="st3" cx="64.5" cy="35.4" rx="5.5" ry="5.6"/>
	<path class="st2" d="M64.5,42c-3.6,0-6.5-3-6.5-6.6c0-3.7,2.9-6.6,6.5-6.6c3.6,0,6.5,3,6.5,6.6C71,39,68.1,42,64.5,42z M64.5,30.7
		c-2.5,0-4.5,2.1-4.5,4.6c0,2.6,2,4.6,4.5,4.6c2.5,0,4.5-2.1,4.5-4.6C69,32.8,67,30.7,64.5,30.7z"/>
	<path class="st4" d="M72,38c0,1.6-1.3,3-3,3H60c-1.6,0-3-1.3-3-3V38c0-1.6,1.3-3,3-3H69C70.7,35,72,36.3,72,38L72,38z"/>
	<path class="st2" d="M69,42H60c-2.2,0-4-1.8-4-4c0-2.3,1.8-4,4-4H69c2.2,0,4,1.8,4,4C73,40.2,71.2,42,69,42z M60,36
		c-1.1,0-2,0.9-2,2c0,1.2,0.9,2,2,2H69c1.1,0,2-0.9,2-2c0-1.2-0.9-2-2-2H60z"/>
	<path class="st3" d="M127,97.4c0,2-1.6,3.6-3.6,3.6H4.6c-2,0-3.6-1.6-3.6-3.6V42.6c0-2,1.6-3.6,3.6-3.6h118.8c2,0,3.6,1.6,3.6,3.6
		V97.4z"/>
	<path class="st5" d="M111.1,60H16.3c-2,0-3.3,1.4-3.3,3.3V101h102V63.3C115,61.4,113.1,60,111.1,60z"/>
	<path class="st6" d="M115,62.5c0-1.4-0.4-2.5-1.2-2.5H14.7c-0.8,0-1.7,1.1-1.7,2.5v0.1c0,1.4,0.9,2.5,1.7,2.5h99.1
		C114.6,65,115,63.9,115,62.5L115,62.5z"/>
	<path class="st2" d="M115,102H13c-0.6,0-1-0.4-1-1V63.3c0-2.5,1.8-4.3,4.3-4.3h95.8c2.4,0,3.9,1.7,3.9,4.3V101
		C116,101.6,115.6,102,115,102z M14,100h100V63.3c0-2.3-1.4-2.3-1.9-2.3H16.3c-1.4,0-2.3,0.9-2.3,2.3V100z"/>
	<path class="st4" d="M122.7,39H3.8c-2,0-3.8,1.7-3.8,3.5V54h126V42.5C126,40.7,124.6,39,122.7,39z"/>
	
		<ellipse transform="matrix(8.852141e-02 -0.9961 0.9961 8.852141e-02 -19.4596 72.7348)" class="st7" cx="30" cy="47" rx="3" ry="3"/>
	<path class="st2" d="M30.4,43c-2.2-0.2-4.1,1.4-4.3,3.6c-0.2,2.2,1.4,4.1,3.6,4.3c2.2,0.2,4.1-1.4,4.3-3.6
		C34.2,45.2,32.6,43.2,30.4,43z M29.8,49c-1.1-0.1-1.9-1.1-1.8-2.2c0.1-1.1,1.1-1.9,2.2-1.8c1.1,0.1,1.9,1.1,1.8,2.2
		C31.9,48.3,30.9,49.1,29.8,49z"/>
	<circle class="st8" cx="10" cy="47" r="3"/>
	<path class="st2" d="M10,51c-2.2,0-4-1.8-4-4c0-2.2,1.8-4,4-4c2.2,0,4,1.8,4,4C14,49.2,12.2,51,10,51z M10,45c-1.1,0-2,0.9-2,2
		c0,1.1,0.9,2,2,2c1.1,0,2-0.9,2-2C12,45.9,11.1,45,10,45z"/>
	<circle class="st7" cx="20" cy="47" r="3"/>
	<path class="st2" d="M20,51c-2.2,0-4-1.8-4-4c0-2.2,1.8-4,4-4c2.2,0,4,1.8,4,4C24,49.2,22.2,51,20,51z M20,45c-1.1,0-2,0.9-2,2
		c0,1.1,0.9,2,2,2c1.1,0,2-0.9,2-2C22,45.9,21.1,45,20,45z"/>
	<rect x="54" y="43" class="st9" width="20" height="8"/>
	<path class="st2" d="M74,52H54c-0.6,0-1-0.4-1-1v-8c0-0.6,0.4-1,1-1h20c0.6,0,1,0.4,1,1v8C75,51.6,74.6,52,74,52z M55,50h18v-6H55
		V50z"/>
	<circle class="st2" cx="117.5" cy="46.5" r="4.5"/>
	<rect x="18" y="60" class="st2" width="8" height="22"/>
	<path class="st2" d="M22,102c-0.6,0-1-0.4-1-1V62c0-0.6,0.4-1,1-1s1,0.4,1,1v39C23,101.6,22.6,102,22,102z"/>
	<rect x="30" y="60" class="st2" width="8" height="22"/>
	<path class="st2" d="M34,102c-0.6,0-1-0.4-1-1V62c0-0.6,0.4-1,1-1s1,0.4,1,1v39C35,101.6,34.6,102,34,102z"/>
	<rect x="42" y="60" class="st2" width="8" height="22"/>
	<path class="st2" d="M46,102c-0.6,0-1-0.4-1-1V62c0-0.6,0.4-1,1-1s1,0.4,1,1v39C47,101.6,46.6,102,46,102z"/>
	<rect x="54" y="60" class="st2" width="8" height="22"/>
	<path class="st2" d="M58,102c-0.6,0-1-0.4-1-1V62c0-0.6,0.4-1,1-1s1,0.4,1,1v39C59,101.6,58.6,102,58,102z"/>
	<rect x="66" y="60" class="st2" width="8" height="22"/>
	<path class="st2" d="M70,102c-0.6,0-1-0.4-1-1V62c0-0.6,0.4-1,1-1s1,0.4,1,1v39C71,101.6,70.6,102,70,102z"/>
	<rect x="78" y="60" class="st2" width="8" height="22"/>
	<path class="st2" d="M82,102c-0.6,0-1-0.4-1-1V62c0-0.6,0.4-1,1-1s1,0.4,1,1v39C83,101.6,82.6,102,82,102z"/>
	<rect x="90" y="60" class="st2" width="8" height="22"/>
	<path class="st2" d="M94,102c-0.6,0-1-0.4-1-1V62c0-0.6,0.4-1,1-1s1,0.4,1,1v39C95,101.6,94.6,102,94,102z"/>
	<rect x="102" y="60" class="st2" width="8" height="22"/>
	<path class="st2" d="M106,102c-0.6,0-1-0.4-1-1V62c0-0.6,0.4-1,1-1c0.6,0,1,0.4,1,1v39C107,101.6,106.6,102,106,102z"/>
	<path class="st2" d="M123.4,102H4.6C2.1,102,0,99.9,0,97.4V42.6C0,40.1,2.1,38,4.6,38h118.8c2.5,0,4.6,2.1,4.6,4.6v54.8
		C128,99.9,125.9,102,123.4,102z M4.6,40C3.2,40,2,41.2,2,42.6v54.8c0,1.4,1.2,2.6,2.6,2.6h118.8c1.4,0,2.6-1.2,2.6-2.6V42.6
		c0-1.4-1.2-2.6-2.6-2.6H4.6z"/>
	<path class="st2" d="M101,44H82c-0.6,0-1-0.4-1-1s0.4-1,1-1h19c0.6,0,1,0.4,1,1S101.6,44,101,44z"/>
	<path class="st2" d="M101,48H82c-0.6,0-1-0.4-1-1s0.4-1,1-1h19c0.6,0,1,0.4,1,1S101.6,48,101,48z"/>
	<path class="st2" d="M101,52H82c-0.6,0-1-0.4-1-1s0.4-1,1-1h19c0.6,0,1,0.4,1,1S101.6,52,101,52z"/>
	<path class="st10" d="M123,96c-0.6,0-1-0.4-1-1V74c0-0.6,0.4-1,1-1c0.6,0,1,0.4,1,1v21C124,95.6,123.6,96,123,96z"/>
	<path class="st10" d="M123,69c-0.6,0-1-0.4-1-1v-9c0-0.6,0.4-1,1-1c0.6,0,1,0.4,1,1v9C124,68.6,123.6,69,123,69z"/>
	<path class="st10" d="M23,79c-0.6,0-1-0.4-1-1v-9c0-0.6,0.4-1,1-1s1,0.4,1,1v9C24,78.6,23.6,79,23,79z"/>
	<path class="st10" d="M35,79c-0.6,0-1-0.4-1-1v-9c0-0.6,0.4-1,1-1s1,0.4,1,1v9C36,78.6,35.6,79,35,79z"/>
	<path class="st10" d="M47,79c-0.6,0-1-0.4-1-1v-9c0-0.6,0.4-1,1-1s1,0.4,1,1v9C48,78.6,47.6,79,47,79z"/>
	<path class="st10" d="M59,79c-0.6,0-1-0.4-1-1v-9c0-0.6,0.4-1,1-1s1,0.4,1,1v9C60,78.6,59.6,79,59,79z"/>
	<path class="st10" d="M71,79c-0.6,0-1-0.4-1-1v-9c0-0.6,0.4-1,1-1s1,0.4,1,1v9C72,78.6,71.6,79,71,79z"/>
	<path class="st10" d="M83,79c-0.6,0-1-0.4-1-1v-9c0-0.6,0.4-1,1-1s1,0.4,1,1v9C84,78.6,83.6,79,83,79z"/>
	<path class="st10" d="M95,79c-0.6,0-1-0.4-1-1v-9c0-0.6,0.4-1,1-1s1,0.4,1,1v9C96,78.6,95.6,79,95,79z"/>
	<path class="st10" d="M106,79c-0.6,0-1-0.4-1-1v-9c0-0.6,0.4-1,1-1c0.6,0,1,0.4,1,1v9C107,78.6,106.6,79,106,79z"/>
	<path class="st11" d="M65,48h-7c-0.6,0-1-0.4-1-1s0.4-1,1-1h7c0.6,0,1,0.4,1,1S65.6,48,65,48z"/>
</g>
</svg>
